<?xml version="1.0" standalone="no"?>
<!DOCTYPE svg PUBLIC "-//W3C//DTD SVG 20010904//EN"
 "http://www.w3.org/TR/2001/REC-SVG-20010904/DTD/svg10.dtd">
<svg version="1.0" xmlns="http://www.w3.org/2000/svg"
 width="104.000000pt" height="104.000000pt" viewBox="0 0 104.000000 104.000000"
 preserveAspectRatio="xMidYMid meet">
<metadata>
Created by potrace 1.14, written by Peter Selinger 2001-2017
</metadata>
<g transform="translate(0.000000,104.000000) scale(0.100000,-0.100000)"
fill="#000000" stroke="none">
<path d="M285 1031 c-3 -5 -5 -31 -4 -58 1 -26 1 -54 0 -60 -1 -9 -22 -13 -71
-13 l-69 0 0 -149 0 -150 71 2 72 2 -1 148 -1 147 72 0 71 0 0 70 1 70 -68 0
c-37 0 -69 -4 -73 -9z m-95 -281 c0 -5 -7 -7 -15 -4 -8 4 -15 8 -15 10 0 2 7
4 15 4 8 0 15 -4 15 -10z m40 0 c0 -5 -7 -7 -15 -4 -8 4 -15 8 -15 10 0 2 7 4
15 4 8 0 15 -4 15 -10z m40 0 c0 -5 -7 -7 -15 -4 -8 4 -15 8 -15 10 0 2 7 4
15 4 8 0 15 -4 15 -10z"/>
<path d="M438 1033 c-2 -5 -4 -35 -4 -68 l1 -60 225 0 225 0 0 65 0 65 -222 3
c-122 1 -223 -1 -225 -5z"/>
<path d="M282 520 c0 -40 5 -73 11 -77 6 -4 72 -6 146 -4 146 2 150 2 228 0
29 -1 58 3 65 9 11 8 16 84 9 135 -1 4 -70 7 -154 7 l-153 0 1 -60 c1 -33 -2
-65 -5 -70 -4 -6 -6 20 -6 57 l1 68 -71 3 -72 3 0 -71z"/>
<path d="M744 367 c1 -71 1 -72 31 -78 l30 -7 -33 -1 -33 -1 2 -70 2 -70 71 0
72 0 0 70 c-1 60 -4 70 -18 70 -10 0 -18 4 -18 9 0 5 8 8 17 7 15 -1 18 9 18
66 1 77 2 77 -86 76 l-57 0 2 -71z m96 -83 c0 -2 -7 -4 -15 -4 -8 0 -15 4 -15
10 0 5 7 7 15 4 8 -4 15 -8 15 -10z"/>
<path d="M140 65 l0 -66 142 3 143 3 0 63 0 62 -142 0 -143 0 0 -65z"/>
<path d="M439 128 c-1 -2 -2 -31 -3 -66 l-2 -62 153 0 c129 0 153 2 154 15 0
8 2 38 2 65 l2 50 -152 0 c-84 0 -154 -1 -154 -2z"/>
</g>
</svg>
