<svg width="19" height="19" viewBox="0 0 19 19" fill="none" xmlns="http://www.w3.org/2000/svg">
<path fill-rule="evenodd" clip-rule="evenodd" d="M9.5 1.78125C5.23687 1.78125 1.78125 5.23687 1.78125 9.5C1.78125 13.7631 5.23687 17.2188 9.5 17.2188C13.7631 17.2188 17.2188 13.7631 17.2188 9.5C17.2188 5.23687 13.7631 1.78125 9.5 1.78125ZM4.95742 4.807C3.99395 5.73983 3.34099 6.94663 3.08724 8.26346C2.83349 9.58029 2.99124 10.9433 3.53908 12.1674C4.08691 13.3914 4.99827 14.4172 6.14934 15.1053C7.30041 15.7934 8.63539 16.1104 9.97294 16.0134C11.3105 15.9164 12.5857 15.41 13.6255 14.5631C14.6652 13.7161 15.419 12.5696 15.7845 11.2793C16.15 9.98899 16.1094 8.61746 15.6683 7.35103C15.2272 6.08459 14.407 4.98463 13.319 4.20058C13.0512 4.62857 12.6956 4.99475 12.2756 5.27488L11.2813 5.9375L11.4119 6.19875C11.472 6.31902 11.4927 6.45516 11.4711 6.58787C11.4496 6.72058 11.3868 6.84314 11.2917 6.93817C11.1965 7.0332 11.0739 7.09588 10.9412 7.11734C10.8085 7.13879 10.6723 7.11793 10.5521 7.05771L10.074 6.81863C9.90688 6.73507 9.71776 6.70616 9.53335 6.736C9.34894 6.76583 9.17858 6.8529 9.04638 6.98488L8.94188 7.08858C8.59433 7.43692 8.59433 8.00058 8.94188 8.34813L9.17621 8.58246C9.37887 8.78592 9.66863 8.87854 9.95204 8.83104L10.8783 8.67667C11.134 8.63392 11.396 8.70517 11.5948 8.87063L12.6477 9.74779C12.901 9.95917 13.0118 10.2972 12.9311 10.6186C12.6282 11.8291 12.0021 12.9346 11.1197 13.817L10.5474 14.3901C10.4152 14.5221 10.2448 14.6092 10.0604 14.639C9.87599 14.6688 9.68687 14.6399 9.51979 14.5564L9.39867 14.4962C9.25074 14.4223 9.12632 14.3086 9.03935 14.1679C8.95238 14.0273 8.90629 13.8652 8.90625 13.6998V12.8377C8.90625 12.6017 8.81204 12.3745 8.645 12.2075L7.57863 11.1411C7.44665 11.0089 7.35958 10.8386 7.32975 10.6541C7.29991 10.4697 7.32882 10.2806 7.41238 10.1135L7.71875 9.5L6.42042 8.20167C5.72018 7.50149 5.25628 6.59999 5.09358 5.62321L4.95742 4.807Z" fill="#81BEC3"/>
</svg>
