<svg width="16" height="16" viewBox="0 0 16 16" fill="none" xmlns="http://www.w3.org/2000/svg">
<path fill-rule="evenodd" clip-rule="evenodd" d="M7.99994 5.50091C7.9998 4.95425 8.12771 4.41515 8.37343 3.92682C8.61915 3.43848 8.97583 3.0145 9.41491 2.68884C9.85399 2.36317 10.3632 2.14489 10.9019 2.05148C11.4405 1.95806 11.9935 1.99212 12.5166 2.15091C12.5993 2.17596 12.6741 2.222 12.7337 2.28455C12.7932 2.34709 12.8356 2.42401 12.8566 2.5078C12.8776 2.5916 12.8766 2.6794 12.8536 2.76267C12.8305 2.84593 12.7863 2.92181 12.7253 2.98291L10.5119 5.19558C10.5539 5.51225 10.6959 5.81825 10.9393 6.06158C11.1826 6.30491 11.4886 6.44691 11.8059 6.48825L14.0179 4.27558C14.079 4.21451 14.1549 4.17031 14.2382 4.14729C14.3215 4.12427 14.4093 4.12321 14.4931 4.14423C14.5768 4.16525 14.6538 4.20761 14.7163 4.2672C14.7789 4.32679 14.8249 4.40157 14.8499 4.48425C15.0161 5.03148 15.0456 5.61109 14.9359 6.17238C14.8262 6.73366 14.5806 7.25951 14.2207 7.70392C13.8607 8.14834 13.3974 8.49778 12.8711 8.72167C12.3449 8.94557 11.7718 9.03709 11.2019 8.98825C10.5233 8.93091 9.95528 9.05491 9.66261 9.41091L4.89594 15.2009C4.70077 15.4368 4.4585 15.6292 4.18464 15.766C3.91078 15.9028 3.61137 15.981 3.30558 15.9954C2.9998 16.0098 2.69437 15.9602 2.40886 15.8497C2.12335 15.7393 1.86405 15.5704 1.64756 15.354C1.43107 15.1376 1.26217 14.8783 1.15166 14.5928C1.04116 14.3073 0.991489 14.0019 1.00583 13.6961C1.02018 13.3903 1.09822 13.0909 1.23497 12.817C1.37171 12.5431 1.56414 12.3008 1.79994 12.1056L7.58928 7.33825C7.94461 7.04491 8.06928 6.47758 8.01194 5.79891C8.00378 5.69979 7.99978 5.60037 7.99994 5.50091ZM2.74461 13.7509C2.74461 13.6183 2.79729 13.4911 2.89106 13.3974C2.98483 13.3036 3.112 13.2509 3.24461 13.2509H3.24994C3.38255 13.2509 3.50973 13.3036 3.6035 13.3974C3.69727 13.4911 3.74994 13.6183 3.74994 13.7509V13.7562C3.74994 13.8889 3.69727 14.016 3.6035 14.1098C3.50973 14.2036 3.38255 14.2562 3.24994 14.2562H3.24461C3.112 14.2562 2.98483 14.2036 2.89106 14.1098C2.79729 14.016 2.74461 13.8889 2.74461 13.7562V13.7509Z" fill="#81BEC3"/>
</svg>
