<svg width="16" height="14" viewBox="0 0 16 14" fill="none" xmlns="http://www.w3.org/2000/svg">
<path fill-rule="evenodd" clip-rule="evenodd" d="M5.379 3.5V3.9375H4.17218C3.58911 3.9375 3.10079 4.35983 3.03945 4.91692L2.27235 11.9169C2.25567 12.0694 2.27254 12.2235 2.32186 12.3693C2.37119 12.5151 2.45187 12.6493 2.55867 12.7632C2.66548 12.8771 2.79602 12.9682 2.94183 13.0305C3.08765 13.0928 3.24548 13.125 3.40508 13.125H12.8192C12.9788 13.125 13.1366 13.0928 13.2824 13.0305C13.4282 12.9682 13.5588 12.8771 13.6656 12.7632C13.7724 12.6493 13.8531 12.5151 13.9024 12.3693C13.9517 12.2235 13.9686 12.0694 13.9519 11.9169L13.1848 4.91692C13.1554 4.64808 13.0234 4.39924 12.8142 4.21838C12.605 4.03752 12.3335 3.93746 12.0521 3.9375H10.8452V3.5C10.8452 2.80381 10.5573 2.13613 10.0447 1.64384C9.53218 1.15156 8.837 0.875 8.11213 0.875C7.38726 0.875 6.69208 1.15156 6.17952 1.64384C5.66696 2.13613 5.379 2.80381 5.379 3.5ZM8.11213 1.75C7.62888 1.75 7.16543 1.93437 6.82372 2.26256C6.48201 2.59075 6.29004 3.03587 6.29004 3.5V3.9375H9.93421V3.5C9.93421 3.03587 9.74224 2.59075 9.40053 2.26256C9.05883 1.93437 8.59537 1.75 8.11213 1.75ZM6.29004 6.5625C6.29004 7.02663 6.48201 7.47175 6.82372 7.79994C7.16543 8.12813 7.62888 8.3125 8.11213 8.3125C8.59537 8.3125 9.05883 8.12813 9.40053 7.79994C9.74224 7.47175 9.93421 7.02663 9.93421 6.5625V6.125C9.93421 6.00897 9.9822 5.89769 10.0676 5.81564C10.1531 5.73359 10.2689 5.6875 10.3897 5.6875C10.5105 5.6875 10.6264 5.73359 10.7118 5.81564C10.7973 5.89769 10.8452 6.00897 10.8452 6.125V6.5625C10.8452 7.25869 10.5573 7.92637 10.0447 8.41865C9.53218 8.91094 8.837 9.1875 8.11213 9.1875C7.38726 9.1875 6.69208 8.91094 6.17952 8.41865C5.66696 7.92637 5.379 7.25869 5.379 6.5625V6.125C5.379 6.00897 5.427 5.89769 5.51242 5.81564C5.59785 5.73359 5.71371 5.6875 5.83452 5.6875C5.95534 5.6875 6.0712 5.73359 6.15662 5.81564C6.24205 5.89769 6.29004 6.00897 6.29004 6.125V6.5625Z" fill="#81BEC3"/>
</svg>
