<svg width="18" height="18" viewBox="0 0 18 18" fill="none" xmlns="http://www.w3.org/2000/svg">
<path d="M14.625 16.6338C14.625 16.5906 14.6133 16.5482 14.5912 16.5111C14.5691 16.474 14.5374 16.4435 14.4995 16.4229C13.5478 15.9114 12.6798 15.1284 12.298 14.7354C12.2413 14.6759 12.1656 14.6381 12.0839 14.6284C12.0023 14.6187 11.9199 14.6378 11.8508 14.6823C10.0814 15.8221 7.92701 15.8228 6.15724 14.6841C6.08756 14.6391 6.00431 14.6199 5.92197 14.6299C5.83963 14.64 5.7634 14.6785 5.70654 14.7389C5.32791 15.1355 4.46939 15.9096 3.51174 16.4176C3.47366 16.4368 3.44111 16.4653 3.41717 16.5006C3.39324 16.5358 3.37871 16.5766 3.37498 16.6191C3.37213 16.6552 3.37761 16.6915 3.39102 16.7252C3.40443 16.7589 3.42539 16.789 3.4523 16.8133C3.47921 16.8376 3.51134 16.8554 3.54621 16.8653C3.58108 16.8752 3.61776 16.877 3.65342 16.8704C4.38642 16.7235 5.09482 16.3895 5.76982 16.0327C5.81312 16.0099 5.86126 15.9978 5.91019 15.9974C5.95913 15.997 6.00744 16.0084 6.05107 16.0305C6.96495 16.4952 7.97565 16.7373 9.00086 16.7373C10.0261 16.7373 11.0368 16.4952 11.9506 16.0305C11.9948 16.0082 12.0436 15.9967 12.0931 15.9971C12.1426 15.9974 12.1913 16.0096 12.2351 16.0327C12.9065 16.3842 13.6139 16.7214 14.3444 16.8694C14.379 16.876 14.4145 16.8749 14.4486 16.866C14.4826 16.8572 14.5142 16.8409 14.5412 16.8183C14.5681 16.7957 14.5897 16.7674 14.6043 16.7354C14.6189 16.7035 14.6262 16.6686 14.6257 16.6335L14.625 16.6338ZM16.7593 8.68043C16.6366 8.38547 16.3761 8.15695 16.0245 8.03531L15.1875 7.70203V4.78125C15.1875 4.18451 14.9504 3.61222 14.5285 3.19026C14.1065 2.7683 13.5342 2.53125 12.9375 2.53125H11.8125V2.25C11.8125 1.87704 11.6643 1.51935 11.4006 1.25563C11.1369 0.991908 10.7792 0.84375 10.4062 0.84375H7.59373C7.22077 0.84375 6.86308 0.991908 6.59936 1.25563C6.33564 1.51935 6.18748 1.87704 6.18748 2.25V2.53125H5.06248C4.46574 2.53125 3.89345 2.7683 3.47149 3.19026C3.04953 3.61222 2.81248 4.18451 2.81248 4.78125V7.70449L1.98349 8.03461C1.63404 8.15063 1.36369 8.38617 1.23994 8.68289C1.15381 8.88996 1.05537 9.21024 1.19424 9.61313L1.19775 9.62367L2.83814 13.8227C2.89858 13.977 3.00431 14.1094 3.14143 14.2024C3.27855 14.2954 3.44063 14.3447 3.60631 14.3438C3.62389 14.3438 3.64146 14.3438 3.6601 14.342C4.76119 14.2717 5.62885 13.7348 6.21244 13.2307C7.04599 13.9504 8.0265 14.3438 8.99998 14.3438C9.97346 14.3438 10.9487 13.95 11.7822 13.2293C12.3655 13.7341 13.2342 14.2724 14.3349 14.342C14.5092 14.3542 14.6828 14.3106 14.8306 14.2174C14.9783 14.1242 15.0925 13.9863 15.1565 13.8238L16.7966 9.6402C16.9119 9.35578 16.8985 9.01582 16.7593 8.68043ZM9.45701 5.42145L9.41693 5.40738C9.14541 5.32195 8.8542 5.32195 8.58267 5.40738L8.56228 5.41371L4.13014 7.17961C4.10879 7.18811 4.08569 7.19125 4.06285 7.18876C4.04001 7.18627 4.01813 7.17822 3.99912 7.16531C3.98011 7.15241 3.96456 7.13505 3.95381 7.11474C3.94306 7.09443 3.93746 7.0718 3.93748 7.04883V4.78125C3.93748 4.48288 4.05601 4.19673 4.26698 3.98576C4.47796 3.77478 4.76411 3.65625 5.06248 3.65625H12.9375C13.2358 3.65625 13.522 3.77478 13.733 3.98576C13.944 4.19673 14.0625 4.48288 14.0625 4.78125V7.04672C14.0625 7.06969 14.0569 7.09232 14.0461 7.11263C14.0354 7.13294 14.0198 7.1503 14.0008 7.16321C13.9818 7.17611 13.9599 7.18416 13.9371 7.18665C13.9143 7.18914 13.8912 7.186 13.8698 7.1775L9.45701 5.42145Z" fill="#81BEC3"/>
</svg>
