<svg width="18" height="18" viewBox="0 0 18 18" fill="none" xmlns="http://www.w3.org/2000/svg">
<path d="M12.375 5.625H5.625V12.375H12.375V5.625Z" fill="#81BEC3"/>
<path fill-rule="evenodd" clip-rule="evenodd" d="M6.1875 1.6875C6.33668 1.6875 6.47976 1.74676 6.58525 1.85225C6.69074 1.95774 6.75 2.10082 6.75 2.25V2.8125H8.4375V2.25C8.4375 2.10082 8.49676 1.95774 8.60225 1.85225C8.70774 1.74676 8.85082 1.6875 9 1.6875C9.14918 1.6875 9.29226 1.74676 9.39775 1.85225C9.50324 1.95774 9.5625 2.10082 9.5625 2.25V2.8125H11.25V2.25C11.25 2.10082 11.3093 1.95774 11.4148 1.85225C11.5202 1.74676 11.6633 1.6875 11.8125 1.6875C11.9617 1.6875 12.1048 1.74676 12.2102 1.85225C12.3157 1.95774 12.375 2.10082 12.375 2.25V2.8125H12.9375C13.5342 2.8125 14.1065 3.04955 14.5285 3.47151C14.9504 3.89347 15.1875 4.46576 15.1875 5.0625V5.625H15.75C15.8992 5.625 16.0423 5.68426 16.1477 5.78975C16.2532 5.89524 16.3125 6.03832 16.3125 6.1875C16.3125 6.33668 16.2532 6.47976 16.1477 6.58525C16.0423 6.69074 15.8992 6.75 15.75 6.75H15.1875V8.4375H15.75C15.8992 8.4375 16.0423 8.49676 16.1477 8.60225C16.2532 8.70774 16.3125 8.85082 16.3125 9C16.3125 9.14918 16.2532 9.29226 16.1477 9.39775C16.0423 9.50324 15.8992 9.5625 15.75 9.5625H15.1875V11.25H15.75C15.8992 11.25 16.0423 11.3093 16.1477 11.4148C16.2532 11.5202 16.3125 11.6633 16.3125 11.8125C16.3125 11.9617 16.2532 12.1048 16.1477 12.2102C16.0423 12.3157 15.8992 12.375 15.75 12.375H15.1875V12.9375C15.1875 13.5342 14.9504 14.1065 14.5285 14.5285C14.1065 14.9504 13.5342 15.1875 12.9375 15.1875H12.375V15.75C12.375 15.8992 12.3157 16.0423 12.2102 16.1477C12.1048 16.2532 11.9617 16.3125 11.8125 16.3125C11.6633 16.3125 11.5202 16.2532 11.4148 16.1477C11.3093 16.0423 11.25 15.8992 11.25 15.75V15.1875H9.5625V15.75C9.5625 15.8992 9.50324 16.0423 9.39775 16.1477C9.29226 16.2532 9.14918 16.3125 9 16.3125C8.85082 16.3125 8.70774 16.2532 8.60225 16.1477C8.49676 16.0423 8.4375 15.8992 8.4375 15.75V15.1875H6.75V15.75C6.75 15.8992 6.69074 16.0423 6.58525 16.1477C6.47976 16.2532 6.33668 16.3125 6.1875 16.3125C6.03832 16.3125 5.89524 16.2532 5.78975 16.1477C5.68426 16.0423 5.625 15.8992 5.625 15.75V15.1875H5.0625C4.46576 15.1875 3.89347 14.9504 3.47151 14.5285C3.04955 14.1065 2.8125 13.5342 2.8125 12.9375V12.375H2.25C2.10082 12.375 1.95774 12.3157 1.85225 12.2102C1.74676 12.1048 1.6875 11.9617 1.6875 11.8125C1.6875 11.6633 1.74676 11.5202 1.85225 11.4148C1.95774 11.3093 2.10082 11.25 2.25 11.25H2.8125V9.5625H2.25C2.10082 9.5625 1.95774 9.50324 1.85225 9.39775C1.74676 9.29226 1.6875 9.14918 1.6875 9C1.6875 8.85082 1.74676 8.70774 1.85225 8.60225C1.95774 8.49676 2.10082 8.4375 2.25 8.4375H2.8125V6.75H2.25C2.10082 6.75 1.95774 6.69074 1.85225 6.58525C1.74676 6.47976 1.6875 6.33668 1.6875 6.1875C1.6875 6.03832 1.74676 5.89524 1.85225 5.78975C1.95774 5.68426 2.10082 5.625 2.25 5.625H2.8125V5.0625C2.8125 4.46576 3.04955 3.89347 3.47151 3.47151C3.89347 3.04955 4.46576 2.8125 5.0625 2.8125H5.625V2.25C5.625 2.10082 5.68426 1.95774 5.78975 1.85225C5.89524 1.74676 6.03832 1.6875 6.1875 1.6875ZM4.5 5.0625C4.5 4.91332 4.55926 4.77024 4.66475 4.66475C4.77024 4.55926 4.91332 4.5 5.0625 4.5H12.9375C13.0867 4.5 13.2298 4.55926 13.3352 4.66475C13.4407 4.77024 13.5 4.91332 13.5 5.0625V12.9375C13.5 13.0867 13.4407 13.2298 13.3352 13.3352C13.2298 13.4407 13.0867 13.5 12.9375 13.5H5.0625C4.91332 13.5 4.77024 13.4407 4.66475 13.3352C4.55926 13.2298 4.5 13.0867 4.5 12.9375V5.0625Z" fill="#81BEC3"/>
</svg>
